<?xml version="1.0" standalone="no"?>
<!DOCTYPE svg PUBLIC "-//W3C//DTD SVG 1.1//EN" "http://www.w3.org/Graphics/SVG/1.1/DTD/svg11.dtd" >
<svg xmlns="http://www.w3.org/2000/svg">
<metadata>
Created by FontForge 20120731 at Fri Apr 22 17:37:24 2016
 By admin
</metadata>
<defs>
<font id="iconfont" horiz-adv-x="1024" >
  <font-face 
    font-family="iconfont"
    font-weight="500"
    font-stretch="normal"
    units-per-em="1024"
    panose-1="2 0 6 3 0 0 0 0 0 0"
    ascent="896"
    descent="-128"
    x-height="792"
    bbox="0 -212 1040 896"
    underline-thickness="50"
    underline-position="-100"
    unicode-range="U+0078-F0105"
  />
<missing-glyph horiz-adv-x="374" 
d="M34 0v682h272v-682h-272zM68 34h204v614h-204v-614z" />
    <glyph glyph-name=".notdef" horiz-adv-x="374" 
d="M34 0v682h272v-682h-272zM68 34h204v614h-204v-614z" />
    <glyph glyph-name=".null" horiz-adv-x="0" 
 />
    <glyph glyph-name="nonmarkingreturn" horiz-adv-x="341" 
 />
    <glyph glyph-name="x" unicode="x" horiz-adv-x="1001" 
d="M281 543q-27 -1 -53 -1h-83q-18 0 -36.5 -6t-32.5 -18.5t-23 -32t-9 -45.5v-76h912v41q0 16 -0.5 30t-0.5 18q0 13 -5 29t-17 29.5t-31.5 22.5t-49.5 9h-133v-97h-438v97zM955 310v-52q0 -23 0.5 -52t0.5 -58t-10.5 -47.5t-26 -30t-33 -16t-31.5 -4.5q-14 -1 -29.5 -0.5
t-29.5 0.5h-32l-45 128h-439l-44 -128h-29h-34q-20 0 -45 1q-25 0 -41 9.5t-25.5 23t-13.5 29.5t-4 30v167h911zM163 247q-12 0 -21 -8.5t-9 -21.5t9 -21.5t21 -8.5q13 0 22 8.5t9 21.5t-9 21.5t-22 8.5zM316 123q-8 -26 -14 -48q-5 -19 -10.5 -37t-7.5 -25t-3 -15t1 -14.5
t9.5 -10.5t21.5 -4h37h67h81h80h64h36q23 0 34 12t2 38q-5 13 -9.5 30.5t-9.5 34.5q-5 19 -11 39h-368zM336 498v228q0 11 2.5 23t10 21.5t20.5 15.5t34 6h188q31 0 51.5 -14.5t20.5 -52.5v-227h-327z" />
    <glyph glyph-name="uniE601" unicode="&#xe601;" 
d="M990 303q0 -98 -38 -186t-102 -152t-152.5 -102t-185.5 -38t-185.5 38t-152.5 102t-102 152t-38 186q0 97 38 185.5t102 152.5t152.5 101.5t185.5 37.5t185.5 -37.5t152.5 -101.5t102 -152.5t38 -185.5z" />
    <glyph glyph-name="uniE602" unicode="&#xe602;" 
d="M301 751l456 -379l-456 -379v758z" />
    <glyph glyph-name="uniE604" unicode="&#xe604;" 
d="M598 39h20v-4h-20v4zM686 60h5v-16h-5v16zM702 60h5v-16h-5v16zM598 32h20v-3h-20v3zM160 392h702v-482h-702v482zM928 -162h-834v622h834v-622zM120 -137h782v571h-782v-571zM795 477l-244 196l19 23l275 -219h-50zM227 477l244 196l-19 23l-275 -219h50zM555 728.5
q0 -18.5 -13 -31t-31 -12.5t-31 12.5t-13 31t13 31t31 12.5t31 -12.5t13 -31z" />
    <glyph glyph-name="uniE607" unicode="&#xe607;" 
d="M971 143l-2 18l-3 17l-3 9l-2 9l-3 9l-4 10l-3 10l-4 9l-8 16l-6 14l-7 13l-5 11l-7 11l-5 9l-10 15l-12 19l-3 5l-1 2v1l2 7l3 6l2 11l2 6v6v5v5v6l-1 4l-2 10l-2 9l-3 8l-3 8l-4 7l-3 7l-3 6l-6 9l-2 3v2l-3 18l-1 11l-2 14l-3 15l-4 17l-3 9l-2 8l-3 9l-3 10l-3 9
l-4 10l-8 19l-5 9l-6 10l-5 9l-6 10l-7 10l-7 8l-8 10l-8 8l-8 8l-9 9l-5 3l-5 4l-11 7l-12 8l-12 7l-13 7l-13 6l-13 6l-14 4l-15 4l-13 4l-15 3l-13 4l-15 1l-14 2l-15 2h-15h-14h-14l-14 -1l-14 -2l-14 -2l-13 -2l-14 -3l-13 -3l-13 -4l-12 -4l-12 -4l-12 -6l-12 -5
l-10 -6l-10 -6l-10 -7l-10 -8l-8 -7l-12 -12l-10 -10l-10 -11l-9 -11l-9 -11l-7 -10l-7 -11l-4 -5l-3 -6l-7 -10l-5 -10l-5 -10l-4 -10l-4 -9l-3 -9l-3 -9l-4 -8l-4 -16l-3 -15l-1 -12l-2 -11v-8v-7v-6l-3 -3l-3 -4l-2 -4l-2 -4l-2 -9l-3 -9v-7l-1 -6v-6l-6 -8l-4 -9l-3 -8
l-2 -7l-2 -7l-2 -6v-6v-6v-5l1 -4l2 -7l1 -6l-3 -3l-9 -6l-12 -11l-7 -7l-7 -6l-5 -5l-4 -5l-9 -9l-8 -10l-7 -8l-8 -11l-7 -11l-7 -12l-7 -11l-5 -11l-5 -11l-4 -10l-4 -11l-3 -11l-3 -11l-3 -10l-2 -10l-1 -9l-2 -10l-1 -18v-17v-7l1 -7l2 -13l1 -6l2 -5l2 -6l1 -3l3 -7
l2 -2l2 -3h1h1h1h7l7 2l7 3l6 4l6 4l5 5l6 5l5 6l5 6l4 6l4 4l2 6l5 8l2 4l1 2v3l1 2h1l2 1h1v-1h1h1l3 -12l2 -10l4 -10l4 -9l4 -9l5 -8l4 -9l4 -7l5 -7l3 -6l10 -12l9 -11l8 -8l8 -7l7 -6l11 -10l4 -2l2 -2v-1l-1 -1h-1h-2l-8 -1l-7 -1l-6 -1l-7 -1l-5 -2l-6 -2l-5 -2
l-4 -3l-5 -1l-3 -3l-3 -2l-4 -3l-4 -5l-2 -3l-2 -2l-3 -6l-2 -5l-1 -5l-1 -4v-6v-3l-1 -4v-4l-1 -4v-3l1 -4l1 -4l2 -7l2 -3l2 -3l2 -3l3 -3l3 -3l2 -3l7 -5l8 -4l8 -5l9 -3l9 -4l11 -2l10 -4l11 -2l12 -2l11 -2l12 -1l24 -3h24h23h10h10h11l9 1l9 1l8 1l13 2l9 3l9 2l17 7
l8 3l7 3l12 7l10 6l8 5l6 5l9 -1l7 -1l14 -1h6h6l4 -1l4 -1l7 -3l8 -2l14 -5l15 -5l14 -4l14 -3l15 -4l15 -2l15 -2l14 -2l14 -1l15 -1h13h14h13l13 1l13 1l12 2l11 3l11 2l11 3l5 1l5 2l9 3l8 4l8 4l8 4l6 5l3 3l3 4l4 4l4 6l1 3l1 3l2 3l1 3v4l1 3l-1 5l-1 4l-2 5l-1 4
l-3 5l-3 5l-3 3l-4 4l-9 7l-10 8l-10 5l-10 6l-23 12l-6 3l-2 2l-1 1l12 11l5 6l4 5l8 12l7 11l6 11l6 10l8 20l7 16l4 12l2 4l2 3l2 2h1h1l6 -12l5 -12l4 -7l4 -5l4 -7l5 -7l4 -5l3 -2l2 -3l2 -1l3 -2l4 -2l3 -1h2h2l2 1l4 1l3 2l3 2l3 3l3 4l2 3l3 5l2 3l2 6l2 4l3 11
l2 12l2 14l1 8v6v7v9z" />
    <glyph glyph-name="uniE60A" unicode="&#xe60a;" 
d="M512 772q-96 0 -183.5 -37.5t-150.5 -100.5t-100.5 -150.5t-37.5 -183.5t37.5 -183.5t100.5 -150.5t150.5 -100.5t183.5 -37.5t183.5 37.5t150.5 100.5t100.5 150.5t37.5 183.5t-37.5 183.5t-100.5 150.5t-150.5 100.5t-183.5 37.5zM512 -140q-90 0 -171.5 35t-140 93.5
t-93.5 140t-35 171.5t35 171.5t93.5 140t140 93.5t171.5 35t171.5 -35t140 -93.5t93.5 -140t35 -171.5t-35 -171.5t-93.5 -140t-140 -93.5t-171.5 -35zM308 285v-248q0 -12 10 -18q8 -4 17 -4h109q5 0 9.5 4t4.5 10v120h108v-120q0 -6 4.5 -10t9.5 -4h109q9 0 17 4
q10 6 10 18v248l-204 193zM695 276v-217q0 -11 -9 -16q-7 -4 -15 -4h-69q-6 0 -9 4q-4 3 -4 9v117h-154v-117q0 -6 -4 -9q-3 -4 -9 -4h-69q-8 0 -15 4q-9 5 -9 20v213l183 169zM803 346l-97 88v138q0 6 -4.5 10.5t-10.5 4.5h-37q-7 0 -11.5 -4.5t-4.5 -10.5v-77l-99 90
q-11 10 -26.5 10t-26.5 -10l-264 -239q-12 -11 -12.5 -27t10.5 -27q11 -13 29 -13q15 0 26 10l238 215l231 -201l16 -12q5 -4 11.5 -6.5t16 -1.5t15.5 8q12 13 12 28.5t-12 26.5zM788 311q-3 -3 -6.5 -4t-7.5 0.5t-7.5 3.5t-8 6t-7.5 6.5t-7.5 7t-6.5 5.5l-224 202
l-231 -210l-10 -10q-7 -7 -11 -10t-9.5 -6.5t-10 -3t-8.5 4.5q-5 5 -5 10.5t2.5 10.5t8 10.5t10 9.5t11 9t8.5 7l222 203q10 9 22.5 9t22.5 -9l115 -106l1 94v2q0 11 8 11l19 1q9 0 12 -2t3 -7v-130l64 -66q2 -1 6.5 -5t8 -7t8 -7.5t7 -8t4 -7.5t1 -7.5t-3.5 -6.5z" />
    <glyph glyph-name="uniE60B" unicode="&#xe60b;" 
d="M772 304q-15 7 -23 -7q-36 -64 -100 -101.5t-137 -37.5t-137 37.5t-100 101.5q-8 14 -23 7q-47 -21 -86 -52.5t-62.5 -62.5t-41.5 -66.5t-26 -62.5t-13 -54t-5.5 -37t-0.5 -15q0 -8 5 -13t13 -5h955q7 0 12 5t5 13q0 5 -0.5 15t-5.5 37t-13 54t-26 62.5t-41.5 66.5
t-62.5 62.5t-86 52.5zM54 -28q1 21 6 43.5t18.5 58.5t34 67.5t57 65.5t83.5 58q42 -67 111 -105t148 -38t148 38t111 105q47 -24 84 -58t57 -65.5t34 -67.5t18.5 -58.5t6.5 -43.5h-917zM512 223q86 0 147.5 61t61.5 148v191q0 86 -61.5 147.5t-147.5 61.5t-147.5 -61.5
t-61.5 -147.5v-191q0 -87 61.5 -148t147.5 -61zM339 623q0 72 50.5 122.5t122.5 50.5t122.5 -50.5t50.5 -122.5v-191q0 -72 -50.5 -122.5t-122.5 -50.5t-122.5 50.5t-50.5 122.5v191z" />
    <glyph glyph-name="uniE60D" unicode="&#xe60d;" 
d="M758 240q36 -51 82 -67q-20 -62 -64 -131q-67 -102 -132 -102q-25 0 -73 17q-44 16 -77.5 16t-73.5 -17q-42 -17 -69 -17q-79 0 -155 135q-76 134 -76 263q0 120 58 196q59 76 147 76q19 0 42.5 -5t48.5 -18q27 -15 44.5 -21t27.5 -6q12 0 35 6q24 5 47 19
q25 14 43.5 21.5t37.5 7.5q62 0 111 -34q26 -18 53 -52q-40 -36 -59 -62q-34 -50 -34 -108q0 -65 36 -117v0zM582 653q-30 -29 -55 -38q-9 -2 -23 -5q-13 -2 -31 -4q1 78 40.5 135t129.5 78q2 -9 2 -12v-10q0 -32 -15 -72q-15 -39 -48 -72v0zM582 653z" />
    <glyph glyph-name="uniE611" unicode="&#xe611;" 
d="M924 465q-34 77 -93.5 137t-137.5 94q45 35 101 35q69 0 117 -48.5t48 -116.5q0 -56 -35 -101zM917 283q0 -80 -29 -151.5t-82 -127.5l57 -56q12 -13 12 -30t-12 -29t-29.5 -12t-29.5 12l-61 61q-105 -73 -232 -73t-232 73l-60 -61q-13 -12 -30.5 -12t-29.5 12t-12 29.5
t12 29.5l57 57q-53 55 -82 127t-29 151q0 110 54.5 203.5t148 148t203.5 54.5t203.5 -54.5t148 -148t54.5 -203.5zM510.5 605q-87.5 0 -161.5 -43t-117 -117.5t-43 -162t43 -161.5t117 -117t161.5 -43t162 43t117.5 117t43 161.5t-43 162t-117.5 117.5t-162 43zM679 241
h-168q-17 0 -29.5 12t-12.5 30v224q0 17 12.5 29.5t29.5 12.5t29.5 -12.5t12.5 -29.5v-182h126q17 0 29.5 -12.5t12.5 -30t-12.5 -29.5t-29.5 -12zM99 459q-36 46 -36 104q0 69 49 118.5t119 49.5q58 0 104 -36q-80 -34 -141 -95.5t-95 -140.5z" />
    <glyph glyph-name="uniE612" unicode="&#xe612;" 
d="M82 -30v34q0 53 53 53h770q15 0 25.5 -14t10.5 -39v-34q0 -16 -11.5 -34.5t-24.5 -18.5h-770q-25 0 -40 19q-5 7 -10 18q-3 8 -3 50q0 53 53 53h770q15 0 25.5 -14t10.5 -39v-34q0 -16 -11.5 -34.5t-24.5 -18.5h-770q-25 0 -40 19q-5 7 -10 18q-3 8 -3 50q0 53 53 53h770
q15 0 25.5 -14t10.5 -39v-34q0 -16 -11.5 -34.5t-24.5 -18.5h-770q-25 0 -40 19q-5 7 -10 18q-3 8 -3 50q0 53 53 53h770q15 0 25.5 -14t10.5 -39v-34q0 -16 -11.5 -34.5t-24.5 -18.5h-770q-25 0 -40 19q-5 7 -10 18q-3 8 -3 50q0 53 53 53h770q15 0 25.5 -14t10.5 -39v-34
q0 -16 -11.5 -34.5t-24.5 -18.5h-770q-25 0 -40 19q-5 7 -10 18q-3 8 -3 50q0 53 53 53h770q15 0 25.5 -14t10.5 -39v-34q0 -16 -11.5 -34.5t-24.5 -18.5h-770q-25 0 -40 19q-5 7 -10 18q-3 8 -3 50q0 53 53 53h770q15 0 25.5 -14t10.5 -39v-34q0 -16 -11.5 -34.5
t-24.5 -18.5h-770q-25 0 -40 19q-5 7 -10 18q-3 8 -3 50q0 53 53 53h770q15 0 25.5 -14t10.5 -39v-34q0 -16 -11.5 -34.5t-24.5 -18.5h-770q-25 0 -40 19q-5 7 -10 18q-3 8 -3 50q0 53 53 53h770q15 0 25.5 -14t10.5 -39v-34q0 -16 -11.5 -34.5t-24.5 -18.5h-770
q-25 0 -40 19q-5 7 -10 18q-3 8 -3 50q0 53 53 53h770q15 0 25.5 -14t10.5 -39v-34q0 -16 -11.5 -34.5t-24.5 -18.5h-770q-24 0 -38.5 18t-14.5 35zM223 162v87q0 31 16 51t53 20h18q37 0 54 -20t17 -51v-87q0 -27 -15.5 -48t-55.5 -21h-18q-39 0 -54 21q-15 22 -15 135
q0 31 16 51t53 20h18q37 0 54 -20t17 -51v-87q0 -27 -15.5 -48t-55.5 -21h-18q-39 0 -54 21q-15 22 -15 135q0 31 16 51t53 20h18q37 0 54 -20t17 -51v-87q0 -27 -15.5 -48t-55.5 -21h-18q-39 0 -54 21q-15 22 -15 135q0 31 16 51t53 20h18q37 0 54 -20t17 -51v-87
q0 -27 -15.5 -48t-55.5 -21h-18q-39 0 -54 21q-15 22 -15 135q0 31 16 51t53 20h18q37 0 54 -20t17 -51v-87q0 -27 -15.5 -48t-55.5 -21h-18q-39 0 -54 21q-15 22 -15 135q0 31 16 51t53 20h18q37 0 54 -20t17 -51v-87q0 -27 -15.5 -48t-55.5 -21h-18q-39 0 -54 21
q-15 22 -15 135q0 31 16 51t53 20h18q37 0 54 -20t17 -51v-87q0 -27 -15.5 -48t-55.5 -21h-18q-39 0 -54 21q-15 22 -15 135q0 31 16 51t53 20h18q37 0 54 -20t17 -51v-87q0 -27 -15.5 -48t-55.5 -21h-18q-39 0 -54 21q-15 22 -15 135q0 31 16 51t53 20h18q37 0 54 -20
t17 -51v-87q0 -27 -15.5 -48t-55.5 -21h-18q-39 0 -54 21q-15 22 -15 135q0 31 16 51t53 20h18q37 0 54 -20t17 -51v-87q0 -27 -15.5 -48t-55.5 -21h-18q-39 0 -54 21q-15 22 -15 48zM450 162v455q0 27 21.5 48.5t48.5 21.5h36q26 0 47.5 -21.5t21.5 -48.5v-455
q0 -26 -22 -47.5t-47 -21.5h-36q-25 0 -48 21q-11 11 -16 22q-6 13 -6 481q0 27 21.5 48.5t48.5 21.5h36q26 0 47.5 -21.5t21.5 -48.5v-455q0 -26 -22 -47.5t-47 -21.5h-36q-25 0 -48 21q-11 11 -16 22q-6 13 -6 481q0 27 21.5 48.5t48.5 21.5h36q26 0 47.5 -21.5
t21.5 -48.5v-455q0 -26 -22 -47.5t-47 -21.5h-36q-25 0 -48 21q-11 11 -16 22q-6 13 -6 481q0 27 21.5 48.5t48.5 21.5h36q26 0 47.5 -21.5t21.5 -48.5v-455q0 -26 -22 -47.5t-47 -21.5h-36q-25 0 -48 21q-11 11 -16 22q-6 13 -6 481q0 27 21.5 48.5t48.5 21.5h36
q26 0 47.5 -21.5t21.5 -48.5v-455q0 -26 -22 -47.5t-47 -21.5h-36q-25 0 -48 21q-11 11 -16 22q-6 13 -6 481q0 27 21.5 48.5t48.5 21.5h36q26 0 47.5 -21.5t21.5 -48.5v-455q0 -26 -22 -47.5t-47 -21.5h-36q-25 0 -48 21q-11 11 -16 22q-6 13 -6 481q0 27 21.5 48.5
t48.5 21.5h36q26 0 47.5 -21.5t21.5 -48.5v-455q0 -26 -22 -47.5t-47 -21.5h-36q-25 0 -48 21q-11 11 -16 22q-6 13 -6 481q0 27 21.5 48.5t48.5 21.5h36q26 0 47.5 -21.5t21.5 -48.5v-455q0 -26 -22 -47.5t-47 -21.5h-36q-25 0 -48 21q-11 11 -16 22q-6 13 -6 481
q0 27 21.5 48.5t48.5 21.5h36q26 0 47.5 -21.5t21.5 -48.5v-455q0 -26 -22 -47.5t-47 -21.5h-36q-25 0 -48 21q-11 11 -16 22q-6 13 -6 481q0 27 21.5 48.5t48.5 21.5h36q26 0 47.5 -21.5t21.5 -48.5v-455q0 -26 -22 -47.5t-47 -21.5h-36q-26 0 -48 21.5t-22 47.5zM677 162
v297q0 27 22 49t48 22h36q26 0 47.5 -22t21.5 -49v-297q0 -26 -21.5 -47.5t-47.5 -21.5h-36q-24 0 -48 21q-10 11 -16 22q-6 13 -6 323q0 27 22 49t48 22h36q26 0 47.5 -22t21.5 -49v-297q0 -26 -21.5 -47.5t-47.5 -21.5h-36q-24 0 -48 21q-10 11 -16 22q-6 13 -6 323
q0 27 22 49t48 22h36q26 0 47.5 -22t21.5 -49v-297q0 -26 -21.5 -47.5t-47.5 -21.5h-36q-24 0 -48 21q-10 11 -16 22q-6 13 -6 323q0 27 22 49t48 22h36q26 0 47.5 -22t21.5 -49v-297q0 -26 -21.5 -47.5t-47.5 -21.5h-36q-24 0 -48 21q-10 11 -16 22q-6 13 -6 323
q0 27 22 49t48 22h36q26 0 47.5 -22t21.5 -49v-297q0 -26 -21.5 -47.5t-47.5 -21.5h-36q-24 0 -48 21q-10 11 -16 22q-6 13 -6 323q0 27 22 49t48 22h36q26 0 47.5 -22t21.5 -49v-297q0 -26 -21.5 -47.5t-47.5 -21.5h-36q-24 0 -48 21q-10 11 -16 22q-6 13 -6 323
q0 27 22 49t48 22h36q26 0 47.5 -22t21.5 -49v-297q0 -26 -21.5 -47.5t-47.5 -21.5h-36q-24 0 -48 21q-10 11 -16 22q-6 13 -6 323q0 27 22 49t48 22h36q26 0 47.5 -22t21.5 -49v-297q0 -26 -21.5 -47.5t-47.5 -21.5h-36q-24 0 -48 21q-10 11 -16 22q-6 13 -6 323
q0 27 22 49t48 22h36q26 0 47.5 -22t21.5 -49v-297q0 -26 -21.5 -47.5t-47.5 -21.5h-36q-24 0 -48 21q-10 11 -16 22q-6 13 -6 323q0 27 22 49t48 22h36q26 0 47.5 -22t21.5 -49v-297q0 -26 -21.5 -47.5t-47.5 -21.5h-36q-26 0 -48 21.5t-22 47.5z" />
    <glyph glyph-name="uniE616" unicode="&#xe616;" 
d="M744 178l-64 16q93 105 93 243q0 102 -51.5 188.5t-140.5 136.5t-194 50t-194.5 -50t-141 -136.5t-51.5 -188t51.5 -188t141 -136.5t194.5 -50q142 0 251 90l16 -62l298 -287l88 86zM387 178q-111 0 -189.5 76t-78.5 183.5t78.5 183.5t189.5 76t189 -76t78 -183.5
t-78 -183.5t-189 -76z" />
    <glyph glyph-name="uniE617" unicode="&#xe617;" 
d="M839.5 455q-22.5 0 -38.5 -16t-16 -39v-216q0 -23 16 -39.5t38.5 -16.5t38.5 16.5t16 39.5v216q0 23 -16 39t-38.5 16zM182.5 455q-22.5 0 -38.5 -16t-16 -39v-216q0 -23 16 -39.5t38.5 -16.5t38.5 16.5t16 39.5v216q0 23 -16 39t-38.5 16zM270 454v-395
q0 -18 12.5 -30.5t29.5 -12.5h49v-120q0 -23 16 -39.5t38.5 -16.5t38.5 16.5t16 39.5v120h84v-120q0 -23 16 -39.5t39 -16.5t38.5 16.5t15.5 39.5v120h49q18 0 30 12.5t12 30.5v395h-484zM626 658l45 65q5 7 -1.5 11.5t-11.5 -2.5l-46 -68q-48 19 -101 19t-101 -19l-46 68
q-5 7 -11 2.5t-2 -11.5l45 -65q-54 -25 -88.5 -70t-38.5 -99h484q-4 54 -38.5 99t-88.5 70zM409 556q-11 0 -19 8t-8 19t8 18.5t19 7.5t19 -7.5t8 -18.5t-8 -19t-19 -8zM617 556q-11 0 -19 8t-8 19t8 18.5t19 7.5t18.5 -7.5t7.5 -18.5t-7.5 -19t-18.5 -8z" />
    <glyph glyph-name="uniE619" unicode="&#xe619;" 
d="M132 679h759q15 0 25 10t10 24.5t-10 24.5t-25 10h-759q-14 0 -24 -10t-10 -24.5t10 -24.5t24 -10zM847 289l-311 311l-1 1l-1 1l-1 1h-1v1h-1l-1 1v0q-1 0 -1 1h-1q-1 1 -2 1h-1l-1 1h-1h-1q-1 1 -2 1v0h-1h-1q-1 0 -1 1h-1v0h-2h-2h-2h-2h-1q0 -1 -1 -1h-1h-1v0
q-1 0 -2 -1h-1h-1l-1 -1h-1h-1v-1h-1v0q-1 -1 -2 -1v0l-1 -1h-1v-1h-1l-1 -1h-1v-1l-1 -1l-311 -311q-10 -10 -10 -24t10 -24.5t24 -10.5t25 10l251 252v-606q0 -14 10.5 -24t24.5 -10t24 10t10 24v606l252 -252q10 -10 24.5 -10t24.5 10.5t10 24.5t-10 24z" />
    <glyph glyph-name="uniE62D" unicode="&#xe62d;" 
d="M518 711q-113 0 -209 -55.5t-151.5 -151.5t-55.5 -209t55.5 -209t151.5 -151.5t209 -55.5t208.5 55.5t151.5 151.5t56 209t-56 209t-151.5 151.5t-208.5 55.5zM517.5 -89q-104.5 0 -193 51.5t-139.5 140t-51 192.5t51 192.5t139.5 140t193 51.5t193 -51.5t140 -140
t51.5 -192.5t-51.5 -192.5t-140 -140t-193 -51.5zM737 75h-193v160h163h10h20v33h-193v83q-31 10 -32 6q-1 -1 -1 -6v-276h-126v193q0 15 -8.5 21.5t-16.5 0t-8 -21.5v-193h-65v-31h450q14 0 19.5 8t0 15.5t-19.5 7.5zM534 497q-16 16 -32 0q-97 -117 -218 -154
q-21 -16 4 -24q137 48 222 149q8 12 16 0q92 -109 218 -157q24 0 12 24q-109 36 -222 162z" />
    <glyph glyph-name="uniE630" unicode="&#xe630;" 
d="M512 803q-114 0 -210 -56t-152 -152.5t-56 -209.5t56 -209.5t152 -152.5t209.5 -56t210 56t152.5 152.5t56 209.5t-56 209.5t-152.5 152.5t-209.5 56zM512 21q-99 0 -183 49t-132.5 132.5t-48.5 182.5t48.5 182.5t132.5 132.5t182.5 49t182.5 -49t132.5 -132.5
t48.5 -182.5t-48.5 -182.5t-132.5 -132.5t-182 -49zM512 21zM694 596q23 -2 24 -27q-1 -24 -24 -26h-146q21 0 18 -26h86q45 1 42 -32v-105q2 -41 -35 -41h-77v-105q0 -39 -39 -40q-7 -2 -35 1q-23 4 -32 7q-19 9 -14 29q7 19 27 17q31 -5 36.5 -5t5.5 10v86h-85
q-35 4 -36 30v107q-2 42 38 41h69q1 26 19 26h-133q-13 -2 -15 -12v-134q-1 -184 -57 -205q-37 2 -22 42q0 2 2 5q28 46 28 167v156q2 32 41 34h314zM432 313q13 23 35 14q22 -10 11 -35q-18 -46 -54 -81q-20 -17 -37 -5q-16 16 0 33q30 32 45 74zM643 464q0 7 -9 7h-165
q-9 0 -9 -7v-12h183v12zM460 392q2 -5 7 -7h169q7 2 7 7v12h-183v-12zM613 288q-16 20 -2 37q18 16 39 0q35 -31 58 -77q10 -21 -4 -31q-19 -13 -36 7q-21 29 -55 64z" />
    <glyph glyph-name="uniE64A" unicode="&#xe64a;" 
d="M988 389q-1 62 -45 107.5t-106 50.5v137q-54 97 -140 154.5t-184 57.5h1q-100 0 -188.5 -58t-142.5 -156v-136q-62 -4 -105 -49.5t-44 -107.5v-2v-1v-8v-4v-5v-1h1v-6v-1l2 -8q0 -3 2 -7v-1v-1q1 -3 2 -7q1 -3 2 -5q1 -3 1 -4q1 -2 2 -5q2 -5 3 -7h1v-2q1 -2 3 -5t4 -7
q0 -1 1 -1q0 -1 2 -4l1 -1q1 -1 1 -1.5t0.5 -1.5t1.5 -1q2 -4 3 -5q2 -3 4 -5t3 -4q2 -1 2.5 -1.5t1 -1.5l0.5 -1l2 -2l2 -2l1 -1l1 -1q3 -2 3 -3q2 -2 6 -4q3 -3 6 -5q2 -2 6 -4q3 -2 5 -3q0 -1 0.5 -1t0.5 -1q1 0 2 -1h1l4 -2l2 -1q4 -2 5 -3h1l6 -3q6 -2 7 -3h1
q1 -1 5 -2t7 -2l6 -2h3l2 -1l4 -1h6q2 -1 4 -1q1 0 2.5 -1t2.5 -1q2 0 6.5 -1t6.5 -1h19v-147q39 -73 102.5 -122t143.5 -62q8 -17 28 -17h60q12 0 21 9t9 22t-9 21.5t-21 8.5h-60q-15 0 -24 -10q-15 3 -32 9q-17 5 -35 14t-34 20q-16 10 -32 23q-15 12 -29 27
q-11 11 -25 29q-2 3 -9 10t-10.5 12t-3.5 10v146v161v276q0 5 3.5 10.5t10.5 12t9 9.5q14 17 26 30q14 14 28 26q16 13 32 24q16 10 34 19t35 14q19 7 38 10q9 2 19 3t20 1h8q11 0 23 -1q15 -2 29.5 -5t28.5 -9q14 -5 28 -11.5t27 -14.5q12 -7 25 -16.5t23.5 -19t21.5 -21.5
q4 -4 8 -9t8 -11t7 -9q1 -2 7.5 -9.5t9.5 -12.5t3 -10v-440h4h3h55q3 0 7.5 1t6.5 2q1 0 4 0.5t4 1t3.5 1t3.5 0.5l1 1q3 0 7 1l14 4q3 1 7 3q4 1 7 2q4 2 7 4q4 2 7 3q6 3 12 8q4 2 6 4q9 7 17 14l4 4v1q1 0 1 0.5t0.5 0.5t0.5 1l4 4l1 1q1 2 4 5q2 3 3 5v1h1l1 2q2 2 3 4
l2 2l2 4q0 1 2 3q0 2 1 4h1q1 4 2 6h1v1q1 2 1 3q1 1 2 3v1q1 2 2 6v0q1 2 2 5l2 8l2 8q1 4 1 7v1v0v1q1 4 1 7h1v1t0.5 3.5t0.5 3.5q0 2 -1 4.5t-1 3.5t-1 2v1z" />
    <glyph glyph-name="uniE64B" unicode="&#xe64b;" 
d="M667 438q13 0 29 -2q-20 88 -107.5 146t-199.5 58q-126 0 -215 -72t-89 -175q0 -115 122 -196l-31 -87l107 50q77 -14 106 -14q14 0 29 1q-10 31 -10 61q0 95 75.5 162.5t183.5 67.5zM503 517q17 0 27.5 -10t10.5 -26.5t-10.5 -26.5t-27.5 -10q-18 0 -31.5 10.5t-13.5 26
t13.5 26t31.5 10.5zM290 444q-18 0 -32 10.5t-14 26t14 26t32 10.5q17 0 27.5 -10t10.5 -26.5t-10.5 -26.5t-27.5 -10zM944 211q0 87 -77.5 149t-180.5 62q-108 0 -183.5 -61.5t-75.5 -149t75.5 -149t183.5 -61.5q30 0 91 14l84 -43l-23 72q106 76 106 167zM602 248
q-11 0 -20.5 9t-9.5 20t9.5 20t20.5 9q17 0 27.5 -9t10.5 -20.5t-10.5 -20t-27.5 -8.5zM769 248q-11 0 -20.5 9t-9.5 20t9.5 20t20.5 9q17 0 28 -9t11 -20.5t-11 -20t-28 -8.5z" />
    <glyph glyph-name="uniE675" unicode="&#xe675;" 
d="M550 756q0 -19 19 -38l335 -291l-335 -291q-14 -14 -15 -31.5t9 -31.5q13 -14 31 -15.5t32 8.5l373 330q19 9 19 37q0 19 -19 38l-373 330q-15 13 -34 10.5t-29 -17.5zM6 756q0 -19 19 -38l335 -291l-335 -291q-14 -14 -15.5 -31.5t8.5 -31.5q14 -14 32 -15.5t32 8.5
l373 330q19 9 19 37q0 19 -19 38l-373 330q-15 13 -34.5 10.5t-29.5 -17.5q-2 -7 -5.5 -16t-5 -14t-1.5 -8z" />
    <glyph glyph-name="uniE677" unicode="&#xe677;" 
d="M512 745q-91 0 -173 -35t-142 -95t-95 -142t-35 -173t35 -173t95 -142t142 -95t173 -35t173 35t142 95t95 142t35 173t-35 173t-95 142t-142 95t-173 35zM512 -115q-113 0 -208.5 55.5t-151 151t-55.5 208.5t55.5 208.5t151 151t208.5 55.5t208.5 -55.5t151 -151
t55.5 -208.5t-55.5 -208.5t-151 -151t-208.5 -55.5zM731 317q-37 25 -37 72q0 48 -18 85t-46 57.5t-58.5 30.5t-59.5 10t-59.5 -10t-58.5 -30.5t-46 -57.5t-18 -85q0 -47 -37 -72q-21 -15 -36.5 -53t0.5 -90l2 -10l10 2q20 3 34 30q7 -27 36 -45q1 -1 3 -2h-2
q-11 -1 -22.5 -7.5t-16.5 -17.5q-8 -18 6 -35q25 -32 105 -32q42 0 69 17q3 2 8 5q11 8 23 8t23 -8q5 -3 8 -5q27 -17 69 -17q80 0 105 32q14 17 6 35q-5 11 -16.5 17.5t-22.5 7.5h-2q1 1 3 2q29 18 36 45q14 -27 34 -30l10 -2l2 10q16 52 0.5 90t-36.5 53zM749 193
q-4 4 -10 15q-1 3 -2 4q-9 15 -22 15q-6 0 -11 -5q-5 -6 -5 -17q1 -8 -7.5 -18.5t-17.5 -16.5q-18 -11 -14 -27q4 -15 23 -16q14 -1 19 -12q3 -6 -2 -12q-19 -24 -88 -24q-36 0 -58 14q-2 1 -6 4q-17 13 -36 13t-36 -13q-4 -3 -6 -4q-22 -14 -58 -14q-69 0 -88 24
q-5 6 -2 12q5 11 19 12q19 1 23 16q4 16 -14 27q-9 6 -17.5 16.5t-7.5 18.5q0 11 -5 17q-5 5 -11 5q-13 0 -22 -15q-1 -1 -2 -4q-6 -11 -10 -15q-6 20 -3 38t7 29.5t11 21t10.5 12.5t5.5 5q46 32 46 90q0 36 11.5 65.5t29 46.5t39.5 29t42 16t38 4t38 -4t42 -16t39.5 -29
t29 -46.5t11.5 -65.5q0 -58 46 -90q2 -2 5.5 -5t10.5 -12.5t11 -21t7 -29.5t-3 -38z" />
    <glyph glyph-name="uniE690" unicode="&#xe690;" 
d="M330 502q0 -24 -17.5 -41.5t-41.5 -17.5t-41 17.5t-17 41.5t17 41.5t41 17.5t41.5 -17.5t17.5 -41.5zM271 532q-12 0 -21 -9t-9 -21t9 -21t21 -9t21 9t9 21t-9 21t-21 9zM566 502q0 -24 -17 -41.5t-41 -17.5t-41.5 17.5t-17.5 41.5t17.5 41.5t41.5 17.5t41 -17.5
t17 -41.5zM507.5 532q-12.5 0 -21 -9t-8.5 -21t8.5 -21t21 -9t21.5 9t9 21t-9 21t-21.5 9zM662 282.5q0 -24.5 -17.5 -41.5t-41.5 -17t-41 17t-17 41.5t17 41.5t41 17t41.5 -17t17.5 -41.5zM603.5 313q-12.5 0 -21.5 -9t-9 -21.5t9 -21t21.5 -8.5t21 8.5t8.5 21t-8.5 21.5
t-21 9zM846 282.5q0 -24.5 -17 -41.5t-41.5 -17t-41.5 17t-17 41.5t17 41.5t41.5 17t41.5 -17t17 -41.5zM787.5 313q-12.5 0 -21 -9t-8.5 -21.5t8.5 -21t21 -8.5t21 8.5t8.5 21t-8.5 21.5t-21 9zM362 703q224 4 331 -145q36 -50 46 -94q59 -11 105 -34.5t73.5 -51.5
t45 -62.5t24 -64.5t6.5 -60q0 -28 -11.5 -57t-28.5 -51t-33.5 -39.5t-27.5 -27.5l-12 -9l31 -110l-123 66q-5 -2 -14 -4.5t-36.5 -7t-54.5 -4.5t-64 7t-70.5 22t-69.5 47t-64 77q-101 -3 -144 14l-148 -72l41 125q-61 39 -95 95t-38 114.5t17.5 117t63 104t107.5 74.5
t143 31zM707 467q-2 5 -5 13.5t-16.5 32.5t-30.5 45t-48.5 45.5t-68 40.5t-91.5 24t-117 1q-76 -8 -139.5 -51.5t-97 -103.5t-29.5 -119q2 -42 14 -76t34.5 -60.5t40.5 -42.5t48 -38l-27 -77l91 46q11 -3 29 -6.5t54 -8.5t50 -2q-4 12 -6.5 34t0.5 54t12 65.5t31.5 67t56 59
t89 41.5t126.5 16zM861 -40l-15 60q100 76 114 154t-54 172q-22 31 -63 52.5t-89.5 31t-101.5 3t-98 -27.5t-79.5 -64t-46.5 -103q-10 -50 3 -94t43 -74t71.5 -52t85.5 -31t87.5 -7t76.5 16z" />
    <glyph glyph-name="uniE694" unicode="&#xe694;" 
d="M752 -212h-480q-53 0 -89.5 37.5t-36.5 88.5v768q0 54 36.5 92t89.5 38h480q53 0 89.5 -37.5t36.5 -88.5v-768q0 -54 -36.5 -92t-89.5 -38v0zM815 682q0 27 -18 45t-45 18h-480q-27 0 -45 -18t-18 -45v-31h606v31v0zM815 588h-606v-512h606v512v0zM815 12h-606v-94
q0 -27 18 -45t45 -18h480q27 0 45 18t18 45v94v0zM512 -117q-21 0 -34 13t-13 33.5t13 34t34 13.5t34 -13.5t13 -34t-13 -33.5t-34 -13v0zM512 -117z" />
    <glyph glyph-name="uniE69C" unicode="&#xe69c;" 
d="M512 -210q-104 0 -198.5 40.5t-162.5 108.5t-108.5 162.5t-40.5 198.5t40.5 198.5t108.5 162.5t162.5 108.5t198.5 40.5t198.5 -40.5t162.5 -108.5t108.5 -162.5t40.5 -198.5t-40.5 -198.5t-108.5 -162.5t-162.5 -108.5t-198.5 -40.5zM512 784q-98 0 -188 -38t-155 -103
t-103 -155t-38 -188t38 -188t103 -155t155 -103t188 -38t188 38t155 103t103 155t38 188t-38 188t-103 155t-155 103t-188 38zM199 150q-35 0 -46 33l-1 2v150l1 2q11 35 49 33h20h21h1q9 0 15 8q14 19 44 57l24 32q3 5 9 13l3 4q11 15 34 19q5 1 15 1l1 -15v15h21h74h81
q42 0 67 -32q15 -19 46 -56q21 -25 30 -36q8 -10 20 -10h5q47 0 80 -19q56 -31 68 -91l2 -3v-72l-1 -2q-10 -30 -36 -32h-24h-18h-17h-13l-2 13q-5 31 -27 49t-47 20q-27 1 -49 -13q-29 -19 -36 -56l-2 -13h-187l-2 13q-5 31 -26.5 49t-46.5 20q-28 1 -49 -13
q-30 -19 -37 -57l-2 -12h-13h-15q-21 0 -31 -1h-3zM183 190q4 -9 16 -9h2h33h2q11 42 47 65q30 20 68 17q31 -2 59.5 -23.5t38.5 -57.5h137q11 40 47 64q30 19 67 17q32 -2 60.5 -23t38.5 -58q3 0 6 -1h17q13 0 22 1q5 0 8 8v60v2q-9 48 -54 72q-26 15 -65 15h-5
q-26 0 -44 21q-9 12 -30 36q-31 38 -46 57q-16 21 -43 21h-81h-74h-22q-7 0 -10 -1q-10 -2 -14 -7l-3 -4q-6 -9 -9 -13q-8 -9 -25 -32q-29 -38 -43 -57q-17 -22 -42 -21h-19h-22h-2q-12 0 -16 -9v-140zM674 340h-172v110h16h14h36q17 -1 30 -17q12 -15 38 -47zM533 370h76
q-22 28 -35 44q-4 5 -7 5h-34v-49zM479 340h-181l16 24q1 3 2 5l50 65q12 17 32 17h1q10 -1 23 -1l57 1v-111zM356 370h92v50h-26h-24v15v-15q-5 0 -8 -4zM341.5 86q-28.5 0 -49 20t-20.5 48.5t20.5 49t49 20.5t48.5 -20.5t20 -49t-20 -48.5t-48.5 -20zM341 193
q-16 0 -27 -11t-11 -27t11 -27t27 -11t27 11t11 27t-11 27t-27 11zM693.5 86q-28.5 0 -48.5 20t-20 48.5t20 49t48.5 20.5t49 -20.5t20.5 -49t-20.5 -48.5t-49 -20zM694 193q-16 0 -27 -11t-11 -27t11 -27t27 -11t27 11t11 27t-11 27t-27 11z" />
    <glyph glyph-name="uniE6B5" unicode="&#xe6b5;" 
d="M563 448q61 28 115 56q55 28 87 40q33 13 52 13q32 0 55 -22q24 -21 24 -54q0 -18 -11.5 -38t-24.5 -25q-120 -48 -263 -69q23 -20 64 -63q39 -41 40 -43q15 -21 39 -48q25 -29 34 -45q10 -16 10 -39q0 -30 -22 -52t-57 -22t-79 54q-44 55 -114 196q-69 -125 -94 -168
q-24 -40 -46 -61q-23 -21 -51 -21q-34 0 -57 23q-23 24 -23 51q0 25 10 38q86 117 177 200q-76 12 -138 27q-64 16 -130 44q-11 5 -22 25q-10 20 -10 36q0 33 24 54q23 22 54 22q22 0 55 -13q35 -14 85 -39q47 -23 117 -57q-12 59 -20 134q-8 74 -8 103q0 34 22 59
q21 24 55 24t55.5 -24.5t21.5 -65.5q0 -9 -3 -44q-2 -21 -9 -79q-7 -51 -14 -107z" />
    <glyph glyph-name="uniE777" unicode="&#xe777;" 
d="M420.5 455q-94.5 0 -161 -67t-66.5 -161.5t66.5 -161.5t161 -67t161.5 67t67 161.5t-67 161.5t-161.5 67zM420.5 35q-79.5 0 -135.5 56.5t-56 136t56 135.5t135.5 56t136 -56t56.5 -135.5t-56.5 -136t-136 -56.5zM948 557q-10 42 -34.5 85t-43.5 65l-19 23
q-1 -9 -3 -23.5t-13.5 -48.5t-30.5 -55q-30 -35 -41 -72t-7 -64t18.5 -54.5t26 -41t23.5 -25.5q-10 -62 -48 -93q-10 139 -112 234.5t-243 95.5q-97 0 -179 -47.5t-130 -129.5t-48 -179t48 -179t130 -130t179 -48q140 0 242.5 95.5t112.5 234.5q41 28 65 70.5t28 75.5
q10 2 17 4.5t20 9.5t21.5 16t17.5 25.5t12.5 37t1.5 51t-11 67.5zM421 -93q-87 0 -160.5 43t-116.5 116.5t-43 160.5t43 160.5t116.5 116.5t160.5 43t160.5 -43t116.5 -116.5t43 -160.5t-43 -160.5t-116.5 -116.5t-160.5 -43zM891 373q-11 -8 -34 -1q13 22 21.5 48.5t9 77.5
t-18.5 104q-18 -58 -22 -229q-38 35 -45 110q-2 22 10 52.5t35 57.5q8 9 13 21t7 22t2.5 19t-0.5 15v5q32 -47 45 -82q25 -77 16 -138t-39 -82zM421 327q-42 0 -71.5 -29t-29.5 -71t29.5 -71t71.5 -29t71.5 29t29.5 71t-29.5 71t-71.5 29z" />
    <glyph glyph-name="uniE788" unicode="&#xe788;" 
d="M776 531h-505q-13 0 -22 -7.5t-9 -17.5t9 -17.5t22 -7.5h505q13 0 22 7.5t9 17.5t-9 17.5t-22 7.5zM776 374h-505q-13 0 -22 -7.5t-9 -17.5t9 -17.5t22 -7.5h505q13 0 22 7.5t9 17.5t-9 17.5t-22 7.5zM880 768h-736q-33 0 -56.5 -23.5t-23.5 -56.5v-539q0 -33 23.5 -56.5
t56.5 -23.5h267l101 -101l101 101h267q33 0 56.5 23.5t23.5 56.5v539q0 33 -23.5 56.5t-56.5 23.5zM910 164q0 -19 -13 -32t-31 -13h-280l-74 -74l-73 74h-281q-18 0 -31 13t-13 32v512q0 19 13 32t31 13h708q18 0 31 -13t13 -32v-512z" />
    <glyph glyph-name="uF0105" unicode="&#xf0105;" 
d="M711 392q-14 2 -18.5 8t-0.5 11l3 4q1 3 3 6.5t5 14.5t4 22t-3.5 24.5t-15.5 23.5q-13 14 -34.5 18t-42.5 0.5t-40.5 -8.5t-31.5 -10l-12 -6q-10 -3 -16 -4t-9.5 0.5t-5.5 3t-1.5 7t1 9t2.5 11.5t3 13q0 15 -2.5 27t-10.5 25.5t-21 20.5t-38 6.5t-58 -11.5t-67 -34
t-59.5 -47.5t-46.5 -47t-32 -37.5l-11 -15q-20 -26 -33 -53t-18.5 -45t-7.5 -35.5t-2 -23.5v-8q5 -46 27.5 -82t53.5 -59t73 -38.5t80.5 -23t81.5 -10.5q71 -6 146.5 11t141 58t92.5 99q16 34 16 63.5t-10 48t-27 33t-31.5 21t-26.5 9.5zM421 94q-103 -5 -175 40t-72 114
q0 68 71.5 117.5t175.5 54.5q104 4 175.5 -35.5t71.5 -106.5q0 -70 -73 -125t-174 -59zM393 359q-38 -4 -64.5 -21t-37 -37.5t-16 -40.5t-4.5 -33l1 -13v-5q0 -3 2 -11t5.5 -15.5t11 -16.5t18.5 -14q62 -31 116.5 -19t88.5 56q16 20 17.5 51.5t-10.5 60t-45.5 46.5t-82.5 12
zM359 177.5q-19 -2.5 -32.5 7.5t-13.5 26q0 17 12.5 31t30.5 16q22 2 35.5 -9t13.5 -27t-13.5 -29t-32.5 -15.5zM439.5 247q-6.5 -5 -13.5 -4.5t-10 6.5q-4 6 -2.5 14t8.5 12q7 6 14 5t10.5 -7t1.5 -13.5t-8.5 -12.5zM778 448q8 0 14.5 5.5t7.5 13.5v2q4 31 -1 54.5
t-15.5 36.5t-24.5 22t-28.5 11.5t-26.5 3t-19 -0.5l-8 -1q-9 0 -16 -7t-7 -16t7 -16t16 -7q30 6 47 0.5t24 -18.5t8.5 -26.5t0.5 -23.5l-2 -11q0 -9 7 -15.5t16 -6.5zM762 713q-48 11 -113 -2l-1 -1h-2l-1 -1q-10 -2 -16.5 -11t-6.5 -20q0 -14 9.5 -23.5t22.5 -9.5
q18 2 30 7q5 0 16.5 1.5t31 -3.5t39 -12.5t40.5 -25t35 -41.5q25 -57 10 -109q-6 -17 -6 -32q0 -14 9 -22t23 -8t21.5 5t10.5 23q17 53 13 96.5t-18.5 75.5t-40.5 55.5t-52 37t-54 20.5z" />
  </font>
</defs>
</svg>
